{
    "asset" : {
        "generator" : "Khronos glTF Blender I/O v1.6.16",
        "version" : "2.0"
    },
    "scene" : 0,
    "scenes" : [
        {
            "name" : "Scene",
            "nodes" : [
                4,
                8
            ]
        }
    ],
    "nodes" : [
        {
            "name" : "Bone.006",
            "rotation" : [
                -0.17228290438652039,
                -5.3391611132269645e-09,
                0.6953360438346863,
                0.6977295279502869
            ],
            "scale" : [
                0.9999999403953552,
                0.9999999403953552,
                1.0000001192092896
            ],
            "translation" : [
                1.2726718523481395e-07,
                3.863128900527954,
                -2.6600256219921903e-08
            ]
        },
        {
            "children" : [
                0
            ],
            "name" : "Bone.003",
            "rotation" : [
                0.12850752472877502,
                -1.0709651832030431e-07,
                -0.535304844379425,
                0.8348260521888733
            ],
            "scale" : [
                0.9999999403953552,
                1,
                0.9999999403953552
            ],
            "translation" : [
                -3.561264172446954e-09,
                0.08866120874881744,
                -1.4610634480050066e-08
            ]
        },
        {
            "children" : [
                1
            ],
            "name" : "Bone.001",
            "rotation" : [
                -0.11703718453645706,
                -2.883967731293069e-09,
                0.9687930345535278,
                0.21850040555000305
            ],
            "scale" : [
                0.9999988079071045,
                1,
                0.9999999403953552
            ],
            "translation" : [
                0,
                1,
                0
            ]
        },
        {
            "children" : [
                2
            ],
            "name" : "Bone"
        },
        {
            "children" : [
                3
            ],
            "name" : "Armature.001",
            "rotation" : [
                0.4934525191783905,
                0.5055631399154663,
                -0.4777839481830597,
                0.5221427083015442
            ],
            "translation" : [
                1.9080811738967896,
                0.16080069541931152,
                -6.342278480529785
            ]
        },
        {
            "name" : "Bone.001",
            "rotation" : [
                0.0010438396129757166,
                -1.1113813421805268e-16,
                -1.1113814745294248e-16,
                0.999999463558197
            ],
            "scale" : [
                1,
                1,
                0.9999999403953552
            ],
            "translation" : [
                0,
                1,
                0
            ]
        },
        {
            "children" : [
                5
            ],
            "name" : "Bone"
        },
        {
            "mesh" : 0,
            "name" : "Cube",
            "skin" : 0
        },
        {
            "children" : [
                7,
                6
            ],
            "name" : "Armature",
            "translation" : [
                0.016510367393493652,
                0.9291490912437439,
                -0.8189069628715515
            ]
        }
    ],
    "animations" : [
        {
            "channels" : [
                {
                    "sampler" : 0,
                    "target" : {
                        "node" : 3,
                        "path" : "translation"
                    }
                },
                {
                    "sampler" : 1,
                    "target" : {
                        "node" : 3,
                        "path" : "rotation"
                    }
                },
                {
                    "sampler" : 2,
                    "target" : {
                        "node" : 3,
                        "path" : "scale"
                    }
                },
                {
                    "sampler" : 3,
                    "target" : {
                        "node" : 2,
                        "path" : "translation"
                    }
                },
                {
                    "sampler" : 4,
                    "target" : {
                        "node" : 2,
                        "path" : "rotation"
                    }
                },
                {
                    "sampler" : 5,
                    "target" : {
                        "node" : 2,
                        "path" : "scale"
                    }
                },
                {
                    "sampler" : 6,
                    "target" : {
                        "node" : 1,
                        "path" : "translation"
                    }
                },
                {
                    "sampler" : 7,
                    "target" : {
                        "node" : 1,
                        "path" : "rotation"
                    }
                },
                {
                    "sampler" : 8,
                    "target" : {
                        "node" : 1,
                        "path" : "scale"
                    }
                },
                {
                    "sampler" : 9,
                    "target" : {
                        "node" : 0,
                        "path" : "translation"
                    }
                },
                {
                    "sampler" : 10,
                    "target" : {
                        "node" : 0,
                        "path" : "rotation"
                    }
                },
                {
                    "sampler" : 11,
                    "target" : {
                        "node" : 0,
                        "path" : "scale"
                    }
                }
            ],
            "name" : "Armature.001Action",
            "samplers" : [
                {
                    "input" : 7,
                    "interpolation" : "LINEAR",
                    "output" : 8
                },
                {
                    "input" : 7,
                    "interpolation" : "LINEAR",
                    "output" : 9
                },
                {
                    "input" : 7,
                    "interpolation" : "LINEAR",
                    "output" : 10
                },
                {
                    "input" : 7,
                    "interpolation" : "LINEAR",
                    "output" : 11
                },
                {
                    "input" : 7,
                    "interpolation" : "LINEAR",
                    "output" : 12
                },
                {
                    "input" : 7,
                    "interpolation" : "LINEAR",
                    "output" : 13
                },
                {
                    "input" : 7,
                    "interpolation" : "LINEAR",
                    "output" : 14
                },
                {
                    "input" : 7,
                    "interpolation" : "LINEAR",
                    "output" : 15
                },
                {
                    "input" : 7,
                    "interpolation" : "LINEAR",
                    "output" : 16
                },
                {
                    "input" : 7,
                    "interpolation" : "LINEAR",
                    "output" : 17
                },
                {
                    "input" : 7,
                    "interpolation" : "LINEAR",
                    "output" : 18
                },
                {
                    "input" : 7,
                    "interpolation" : "LINEAR",
                    "output" : 19
                }
            ]
        },
        {
            "channels" : [
                {
                    "sampler" : 0,
                    "target" : {
                        "node" : 6,
                        "path" : "translation"
                    }
                },
                {
                    "sampler" : 1,
                    "target" : {
                        "node" : 6,
                        "path" : "rotation"
                    }
                },
                {
                    "sampler" : 2,
                    "target" : {
                        "node" : 6,
                        "path" : "scale"
                    }
                },
                {
                    "sampler" : 3,
                    "target" : {
                        "node" : 5,
                        "path" : "translation"
                    }
                },
                {
                    "sampler" : 4,
                    "target" : {
                        "node" : 5,
                        "path" : "rotation"
                    }
                },
                {
                    "sampler" : 5,
                    "target" : {
                        "node" : 5,
                        "path" : "scale"
                    }
                }
            ],
            "name" : "ArmatureAction",
            "samplers" : [
                {
                    "input" : 20,
                    "interpolation" : "LINEAR",
                    "output" : 21
                },
                {
                    "input" : 20,
                    "interpolation" : "LINEAR",
                    "output" : 22
                },
                {
                    "input" : 20,
                    "interpolation" : "LINEAR",
                    "output" : 23
                },
                {
                    "input" : 20,
                    "interpolation" : "LINEAR",
                    "output" : 24
                },
                {
                    "input" : 20,
                    "interpolation" : "LINEAR",
                    "output" : 25
                },
                {
                    "input" : 20,
                    "interpolation" : "LINEAR",
                    "output" : 26
                }
            ]
        }
    ],
    "materials" : [
        {
            "doubleSided" : true,
            "name" : "Material",
            "pbrMetallicRoughness" : {
                "baseColorFactor" : [
                    0.800000011920929,
                    0.800000011920929,
                    0.800000011920929,
                    1
                ],
                "metallicFactor" : 0,
                "roughnessFactor" : 0.4000000059604645
            }
        }
    ],
    "meshes" : [
        {
            "name" : "Cube",
            "primitives" : [
                {
                    "attributes" : {
                        "POSITION" : 0,
                        "NORMAL" : 1,
                        "TEXCOORD_0" : 2,
                        "JOINTS_0" : 3,
                        "WEIGHTS_0" : 4
                    },
                    "indices" : 5,
                    "material" : 0
                }
            ]
        }
    ],
    "skins" : [
        {
            "inverseBindMatrices" : 6,
            "joints" : [
                6,
                5
            ],
            "name" : "Armature"
        }
    ],
    "accessors" : [
        {
            "bufferView" : 0,
            "componentType" : 5126,
            "count" : 48,
            "max" : [
                1,
                6.865632057189941,
                1
            ],
            "min" : [
                -1,
                -1.9153136014938354,
                -1
            ],
            "type" : "VEC3"
        },
        {
            "bufferView" : 1,
            "componentType" : 5126,
            "count" : 48,
            "type" : "VEC3"
        },
        {
            "bufferView" : 2,
            "componentType" : 5126,
            "count" : 48,
            "type" : "VEC2"
        },
        {
            "bufferView" : 3,
            "componentType" : 5121,
            "count" : 48,
            "type" : "VEC4"
        },
        {
            "bufferView" : 4,
            "componentType" : 5126,
            "count" : 48,
            "type" : "VEC4"
        },
        {
            "bufferView" : 5,
            "componentType" : 5123,
            "count" : 84,
            "type" : "SCALAR"
        },
        {
            "bufferView" : 6,
            "componentType" : 5126,
            "count" : 2,
            "type" : "MAT4"
        },
        {
            "bufferView" : 7,
            "componentType" : 5126,
            "count" : 21,
            "max" : [
                0.8333333333333334
            ],
            "min" : [
                0
            ],
            "type" : "SCALAR"
        },
        {
            "bufferView" : 8,
            "componentType" : 5126,
            "count" : 21,
            "type" : "VEC3"
        },
        {
            "bufferView" : 9,
            "componentType" : 5126,
            "count" : 21,
            "type" : "VEC4"
        },
        {
            "bufferView" : 10,
            "componentType" : 5126,
            "count" : 21,
            "type" : "VEC3"
        },
        {
            "bufferView" : 11,
            "componentType" : 5126,
            "count" : 21,
            "type" : "VEC3"
        },
        {
            "bufferView" : 12,
            "componentType" : 5126,
            "count" : 21,
            "type" : "VEC4"
        },
        {
            "bufferView" : 13,
            "componentType" : 5126,
            "count" : 21,
            "type" : "VEC3"
        },
        {
            "bufferView" : 14,
            "componentType" : 5126,
            "count" : 21,
            "type" : "VEC3"
        },
        {
            "bufferView" : 15,
            "componentType" : 5126,
            "count" : 21,
            "type" : "VEC4"
        },
        {
            "bufferView" : 16,
            "componentType" : 5126,
            "count" : 21,
            "type" : "VEC3"
        },
        {
            "bufferView" : 17,
            "componentType" : 5126,
            "count" : 21,
            "type" : "VEC3"
        },
        {
            "bufferView" : 18,
            "componentType" : 5126,
            "count" : 21,
            "type" : "VEC4"
        },
        {
            "bufferView" : 19,
            "componentType" : 5126,
            "count" : 21,
            "type" : "VEC3"
        },
        {
            "bufferView" : 20,
            "componentType" : 5126,
            "count" : 31,
            "max" : [
                1.25
            ],
            "min" : [
                0
            ],
            "type" : "SCALAR"
        },
        {
            "bufferView" : 21,
            "componentType" : 5126,
            "count" : 31,
            "type" : "VEC3"
        },
        {
            "bufferView" : 22,
            "componentType" : 5126,
            "count" : 31,
            "type" : "VEC4"
        },
        {
            "bufferView" : 23,
            "componentType" : 5126,
            "count" : 31,
            "type" : "VEC3"
        },
        {
            "bufferView" : 24,
            "componentType" : 5126,
            "count" : 31,
            "type" : "VEC3"
        },
        {
            "bufferView" : 25,
            "componentType" : 5126,
            "count" : 31,
            "type" : "VEC4"
        },
        {
            "bufferView" : 26,
            "componentType" : 5126,
            "count" : 31,
            "type" : "VEC3"
        }
    ],
    "bufferViews" : [
        {
            "buffer" : 0,
            "byteLength" : 576,
            "byteOffset" : 0
        },
        {
            "buffer" : 0,
            "byteLength" : 576,
            "byteOffset" : 576
        },
        {
            "buffer" : 0,
            "byteLength" : 384,
            "byteOffset" : 1152
        },
        {
            "buffer" : 0,
            "byteLength" : 192,
            "byteOffset" : 1536
        },
        {
            "buffer" : 0,
            "byteLength" : 768,
            "byteOffset" : 1728
        },
        {
            "buffer" : 0,
            "byteLength" : 168,
            "byteOffset" : 2496
        },
        {
            "buffer" : 0,
            "byteLength" : 128,
            "byteOffset" : 2664
        },
        {
            "buffer" : 0,
            "byteLength" : 84,
            "byteOffset" : 2792
        },
        {
            "buffer" : 0,
            "byteLength" : 252,
            "byteOffset" : 2876
        },
        {
            "buffer" : 0,
            "byteLength" : 336,
            "byteOffset" : 3128
        },
        {
            "buffer" : 0,
            "byteLength" : 252,
            "byteOffset" : 3464
        },
        {
            "buffer" : 0,
            "byteLength" : 252,
            "byteOffset" : 3716
        },
        {
            "buffer" : 0,
            "byteLength" : 336,
            "byteOffset" : 3968
        },
        {
            "buffer" : 0,
            "byteLength" : 252,
            "byteOffset" : 4304
        },
        {
            "buffer" : 0,
            "byteLength" : 252,
            "byteOffset" : 4556
        },
        {
            "buffer" : 0,
            "byteLength" : 336,
            "byteOffset" : 4808
        },
        {
            "buffer" : 0,
            "byteLength" : 252,
            "byteOffset" : 5144
        },
        {
            "buffer" : 0,
            "byteLength" : 252,
            "byteOffset" : 5396
        },
        {
            "buffer" : 0,
            "byteLength" : 336,
            "byteOffset" : 5648
        },
        {
            "buffer" : 0,
            "byteLength" : 252,
            "byteOffset" : 5984
        },
        {
            "buffer" : 0,
            "byteLength" : 124,
            "byteOffset" : 6236
        },
        {
            "buffer" : 0,
            "byteLength" : 372,
            "byteOffset" : 6360
        },
        {
            "buffer" : 0,
            "byteLength" : 496,
            "byteOffset" : 6732
        },
        {
            "buffer" : 0,
            "byteLength" : 372,
            "byteOffset" : 7228
        },
        {
            "buffer" : 0,
            "byteLength" : 372,
            "byteOffset" : 7600
        },
        {
            "buffer" : 0,
            "byteLength" : 496,
            "byteOffset" : 7972
        },
        {
            "buffer" : 0,
            "byteLength" : 372,
            "byteOffset" : 8468
        }
    ],
    "buffers" : [
        {
            "byteLength" : 8840,
            "uri" : "data:application/octet-stream;base64,"
        }
    ]
}
